<svg width="785" height="820" viewBox="0 0 785 820" fill="none" xmlns="http://www.w3.org/2000/svg">
<path d="M213.924 611.729C199.463 681.93 198.828 751.929 210.224 819.155" stroke="black" stroke-width="1.81601"/>
<path d="M826.693 145.471C764.733 121.737 622.054 155.791 546.833 197.147" stroke="black" stroke-width="1.81601"/>
<path d="M204.483 564.351L206.166 557.471L243.21 566.53L241.528 573.409L204.483 564.351ZM236.843 592.567L235.161 599.447L198.116 590.388L199.799 583.508L236.843 592.567ZM225.781 568.998L220.825 589.267L214.95 587.83L219.907 567.561L225.781 568.998Z" fill="#0B6623"/>
<path d="M251.223 540.797L245.617 539.008L244.308 538.991L234.498 535.86C232.595 535.252 230.943 535.354 229.54 536.164C228.103 536.964 227.015 538.523 226.275 540.841C225.778 542.398 225.528 544.015 225.527 545.692C225.536 547.334 225.808 548.813 226.342 550.127L220.807 551.162C220.14 549.31 219.856 547.275 219.954 545.057C220.028 542.793 220.419 540.554 221.126 538.339C222.407 534.326 224.364 531.538 226.997 529.977C229.607 528.37 232.919 528.207 236.932 529.488L253.177 534.673L251.223 540.797ZM248.803 549.633C248.14 551.709 247.214 553.415 246.025 554.751C244.802 556.076 243.429 556.972 241.908 557.44C240.362 557.861 238.794 557.818 237.202 557.31C235.645 556.813 234.36 556.003 233.346 554.879C232.343 553.72 231.749 552.177 231.564 550.249C231.378 548.322 231.733 545.957 232.628 543.154L235.195 535.11L239.503 536.485L237.084 544.062C236.378 546.277 236.266 547.88 236.75 548.874C237.199 549.856 237.942 550.512 238.98 550.844C240.157 551.219 241.24 551.05 242.23 550.337C243.22 549.624 243.981 548.437 244.511 546.776C245.019 545.184 245.108 543.65 244.779 542.172C244.461 540.66 243.681 539.401 242.439 538.394L246.68 538.547C248.107 539.689 249.011 541.216 249.392 543.13C249.783 545.008 249.587 547.176 248.803 549.633Z" fill="#0B6623"/>
<path d="M257.717 506.319L258.678 508.297L235.56 498.908L238.122 492.598L261.24 501.988L259.111 502.887L264.523 489.561L265.443 491.64L242.325 482.251L244.888 475.941L271.842 486.889L255.708 526.613L228.753 515.666L231.316 509.356L254.434 518.746L252.325 519.594L257.717 506.319Z" fill="#0B6623"/>
<path d="M274.871 480.855L248.88 467.785L251.939 461.701L269.072 470.316L259.159 447.342L261.949 441.793L287.941 454.863L284.881 460.947L267.749 452.332L277.686 475.257L274.871 480.855Z" fill="#0B6623"/>
<path d="M299.463 434.457L274.827 418.984L289.663 395.363L314.299 410.836L310.706 416.557L289.622 403.315L291.8 402.817L282.499 417.626L282.001 415.448L303.085 428.69L299.463 434.457Z" fill="#0B6623"/>
<path d="M325.737 395.245C323.999 397.663 321.935 399.445 319.546 400.591C317.128 401.716 314.612 402.166 311.999 401.943C309.386 401.72 306.915 400.772 304.585 399.097C302.226 397.401 300.538 395.361 299.524 392.977C298.479 390.571 298.119 388.054 298.444 385.425C298.768 382.795 299.799 380.271 301.538 377.853C303.297 375.405 305.371 373.608 307.76 372.462C310.17 371.287 312.656 370.815 315.218 371.046C317.802 371.248 320.288 372.208 322.677 373.925C325.007 375.599 326.694 377.639 327.738 380.045C328.804 382.421 329.178 384.949 328.862 387.629C328.538 390.258 327.496 392.797 325.737 395.245ZM321.003 391.843C321.978 390.486 322.552 389.065 322.725 387.579C322.899 386.094 322.637 384.653 321.94 383.258C321.265 381.833 320.175 380.58 318.671 379.499C317.137 378.397 315.602 377.763 314.065 377.598C312.521 377.382 311.072 377.594 309.719 378.231C308.366 378.869 307.213 379.852 306.259 381.179C305.284 382.536 304.71 383.957 304.536 385.442C304.384 386.899 304.646 388.339 305.322 389.764C305.968 391.168 307.058 392.421 308.591 393.523C310.095 394.604 311.63 395.237 313.196 395.424C314.762 395.61 316.211 395.399 317.543 394.79C318.896 394.152 320.049 393.17 321.003 391.843Z" fill="#0B6623"/>
<path d="M351.832 360.952L334.379 360.274L335.236 353.799L356.898 354.749L351.832 360.952ZM338.634 377.113L316.101 358.711L320.408 353.437L342.941 371.838L338.634 377.113ZM332.636 366.025L328.248 362.441L334.485 354.804L338.874 358.388L332.636 366.025ZM338.476 355.601L333.854 360.056L329.299 342.55L333.917 336.895L338.476 355.601Z" fill="#0B6623"/>
<path d="M371.399 338.954L367.062 334.978L365.88 334.412L358.29 327.455C356.818 326.105 355.275 325.503 353.662 325.651C352.022 325.773 350.38 326.732 348.735 328.526C347.631 329.73 346.726 331.094 346.021 332.615C345.341 334.11 344.967 335.566 344.9 336.983L339.442 335.6C339.613 333.639 340.209 331.673 341.229 329.7C342.246 327.677 343.54 325.808 345.111 324.094C347.958 320.989 350.904 319.28 353.949 318.967C356.993 318.604 360.067 319.845 363.173 322.692L375.743 334.215L371.399 338.954ZM365.496 345.958C364.023 347.565 362.467 348.725 360.827 349.439C359.16 350.128 357.538 350.366 355.961 350.152C354.381 349.886 352.976 349.189 351.744 348.06C350.539 346.956 349.713 345.681 349.264 344.235C348.84 342.762 348.948 341.112 349.589 339.285C350.229 337.458 351.543 335.46 353.531 333.291L359.237 327.066L362.571 330.122L357.196 335.985C355.625 337.699 354.851 339.108 354.873 340.212C354.869 341.292 355.268 342.2 356.071 342.936C356.982 343.771 358.036 344.072 359.234 343.84C360.432 343.608 361.62 342.849 362.798 341.564C363.927 340.333 364.652 338.977 364.974 337.498C365.319 335.992 365.14 334.522 364.435 333.087L368.22 335.005C369.036 336.64 369.216 338.406 368.759 340.303C368.326 342.172 367.238 344.058 365.496 345.958Z" fill="#0B6623"/>
<path d="M389.37 321.328C387.783 322.874 386.032 324.226 384.116 325.382C382.201 326.487 380.277 327.297 378.344 327.811L376.174 322.851C377.746 322.435 379.322 321.762 380.901 320.833C382.48 319.903 383.906 318.817 385.181 317.575C386.274 316.511 387.109 315.494 387.687 314.526C388.239 313.531 388.508 312.61 388.493 311.762C388.505 310.889 388.232 310.167 387.674 309.594C386.863 308.762 385.891 308.492 384.757 308.786C383.623 309.028 382.393 309.795 381.067 311.087L377.047 315.003L373.854 311.725L377.483 308.19C378.315 307.379 378.929 306.603 379.324 305.864C379.745 305.099 379.934 304.382 379.891 303.713C379.849 303.045 379.587 302.464 379.105 301.97C378.624 301.475 378.01 301.236 377.265 301.252C376.521 301.217 375.709 301.45 374.829 301.952C373.924 302.428 372.977 303.148 371.988 304.111C370.948 305.125 369.995 306.307 369.13 307.657C368.29 308.981 367.539 310.448 366.876 312.058L362.13 309.684C362.874 307.793 363.718 306.083 364.662 304.555C365.608 302.975 366.692 301.563 367.915 300.321C369.739 298.393 371.62 296.94 373.559 295.964C375.498 294.988 377.328 294.523 379.048 294.572C380.768 294.62 382.211 295.242 383.377 296.439C384.34 297.428 384.902 298.629 385.063 300.044C385.225 301.407 384.989 302.83 384.353 304.311C383.743 305.767 382.762 307.154 381.409 308.472L380.539 307.266C382.854 305.011 385.131 303.705 387.37 303.349C389.584 302.967 391.464 303.569 393.01 305.156C394.252 306.431 394.925 307.981 395.03 309.806C395.109 311.605 394.66 313.512 393.684 315.529C392.733 317.52 391.295 319.453 389.37 321.328Z" fill="#0B6623"/>
<path d="M416.153 296.081L412.273 291.657L411.16 290.967L404.369 283.227C403.052 281.725 401.584 280.96 399.964 280.931C398.321 280.875 396.584 281.649 394.755 283.254C393.526 284.332 392.479 285.589 391.613 287.025C390.774 288.437 390.245 289.844 390.024 291.245L384.748 289.279C385.132 287.348 385.937 285.457 387.165 283.607C388.396 281.706 389.885 279.989 391.633 278.456C394.8 275.678 397.914 274.298 400.975 274.318C404.04 274.287 406.962 275.855 409.74 279.022L420.986 291.841L416.153 296.081ZM409.524 302.403C407.886 303.84 406.213 304.825 404.505 305.356C402.774 305.861 401.135 305.921 399.591 305.537C398.049 305.102 396.727 304.256 395.626 303C394.548 301.771 393.864 300.414 393.575 298.928C393.314 297.418 393.601 295.79 394.435 294.043C395.27 292.296 396.793 290.452 399.005 288.512L405.353 282.943L408.335 286.343L402.356 291.588C400.608 293.121 399.686 294.438 399.588 295.538C399.466 296.611 399.765 297.557 400.483 298.376C401.298 299.304 402.313 299.718 403.529 299.618C404.746 299.517 406.009 298.892 407.319 297.742C408.575 296.64 409.443 295.372 409.923 293.936C410.43 292.476 410.412 290.995 409.866 289.493L413.421 291.81C414.055 293.524 414.042 295.299 413.382 297.135C412.748 298.946 411.463 300.703 409.524 302.403Z" fill="#0B6623"/>
<path d="M431.469 283.404L416.007 263.82L418.26 264.124L408.981 271.45L405.402 266.917L426.782 250.037L430.361 254.57L421.125 261.862L421.352 259.6L436.814 279.184L431.469 283.404Z" fill="#0B6623"/>
<path d="M461.062 261.701C458.419 263.562 455.736 264.673 453.015 265.034C450.302 265.345 447.748 264.966 445.353 263.898C442.988 262.809 440.979 261.091 439.328 258.745C437.655 256.369 436.701 253.909 436.465 251.366C436.239 248.772 436.68 246.307 437.79 243.971C438.929 241.615 440.687 239.6 443.063 237.928C445.38 236.297 447.799 235.349 450.322 235.084C452.844 234.818 455.273 235.241 457.609 236.35C459.945 237.46 461.99 239.262 463.747 241.757C463.914 241.995 464.087 242.273 464.266 242.591C464.475 242.888 464.659 243.18 464.818 243.468L444.992 257.423L442.39 253.725L459.275 241.84L457.907 244.535C456.975 243.148 455.846 242.144 454.52 241.522C453.195 240.901 451.803 240.659 450.345 240.797C448.917 240.913 447.535 241.442 446.199 242.383C444.833 243.345 443.839 244.488 443.217 245.814C442.626 247.119 442.409 248.515 442.568 250.002C442.735 251.439 443.32 252.87 444.324 254.296L444.951 255.187C445.954 256.612 447.17 257.645 448.597 258.284C450.023 258.923 451.54 259.121 453.146 258.879C454.752 258.637 456.328 257.972 457.872 256.885C459.208 255.944 460.265 254.89 461.042 253.721C461.818 252.553 462.309 251.23 462.513 249.754L467.913 251.083C467.721 253.084 467.049 255 465.897 256.833C464.753 258.615 463.141 260.238 461.062 261.701Z" fill="#0B6623"/>
<path d="M473.866 252.129L471.129 247.095C471.365 246.992 471.584 246.898 471.789 246.814C471.993 246.73 472.172 246.64 472.327 246.545C473.284 245.951 473.842 245.199 474.004 244.287C474.165 243.375 474.062 242.348 473.697 241.208C473.343 240.017 472.829 238.775 472.156 237.483C471.495 236.141 470.803 234.818 470.08 233.514L464.582 223.718L484.584 211.314L499.916 236.039L494.128 239.628L480.864 218.237L483.183 218.979L471.422 226.271L471.667 223.876L475.392 230.605C476.658 232.854 477.736 235.006 478.626 237.061C479.527 239.066 480.131 240.936 480.437 242.669C480.773 244.384 480.703 245.923 480.224 247.289C479.777 248.634 478.828 249.757 477.377 250.657C476.914 250.944 476.376 251.213 475.763 251.465C475.181 251.698 474.548 251.919 473.866 252.129Z" fill="#0B6623"/>
<path d="M507.785 231.443L494.001 205.823L499.999 202.596L509.085 219.484L514.152 194.982L519.621 192.039L533.405 217.659L527.408 220.886L518.322 203.998L513.303 228.475L507.785 231.443Z" fill="#0B6623"/>
</svg>
