<svg width="76" height="82" viewBox="0 0 76 82" fill="none" xmlns="http://www.w3.org/2000/svg">
<path d="M75.4254 0.505592C75.6985 0.464409 75.9532 0.652382 75.9944 0.925438C76.0356 1.19849 75.8476 1.45323 75.5746 1.49441L75.4254 0.505592ZM75.5 1C75.5746 1.49441 75.5746 1.4944 75.5746 1.49441C75.5744 1.49443 75.5743 1.49445 75.574 1.4945C75.5733 1.4946 75.5722 1.49477 75.5706 1.49501C75.5675 1.49549 75.5626 1.49625 75.5559 1.4973C75.5426 1.4994 75.5222 1.50265 75.4949 1.50712C75.4402 1.51605 75.3581 1.52985 75.2499 1.54899C75.0337 1.58727 74.7136 1.64693 74.302 1.73186C73.4789 1.90175 72.2904 2.17264 70.8359 2.5756C67.9261 3.38178 63.9569 4.71513 59.7209 6.82265C51.2439 11.0402 41.7446 18.3331 37.4724 30.6637L36.5276 30.3363C40.9171 17.6669 50.6678 10.2098 59.2754 5.92735C63.5817 3.78487 67.6135 2.43072 70.5689 1.6119C72.0472 1.20236 73.2575 0.926376 74.0999 0.75251C74.5212 0.665565 74.8506 0.604134 75.0756 0.564293C75.1882 0.544373 75.2746 0.529846 75.3334 0.520226C75.3628 0.515419 75.3853 0.511833 75.4007 0.509415C75.4084 0.508209 75.4144 0.507286 75.4185 0.506653C75.4205 0.506332 75.4222 0.506088 75.4233 0.505913C75.4239 0.505821 75.4244 0.505745 75.4247 0.505699C75.4251 0.505638 75.4254 0.505592 75.5 1ZM37.4724 30.6637C33.1122 43.2484 24.9423 54.6786 17.8821 62.9496C14.3493 67.0884 11.088 70.4432 8.70924 72.7641C7.51973 73.9247 6.55055 74.827 5.87799 75.4399C5.54169 75.7463 5.27953 75.9804 5.10103 76.1382C5.01178 76.2172 4.94344 76.277 4.89721 76.3173C4.87409 76.3375 4.8565 76.3527 4.84459 76.3631C4.83863 76.3682 4.83409 76.3721 4.83099 76.3748C4.82944 76.3761 4.82824 76.3772 4.82741 76.3779C4.827 76.3782 4.82665 76.3786 4.82644 76.3787C4.82618 76.379 4.82601 76.3791 4.5 76C4.17399 75.6209 4.174 75.6209 4.1741 75.6208C4.17426 75.6207 4.17445 75.6205 4.17476 75.6202C4.17538 75.6197 4.17637 75.6189 4.17771 75.6177C4.18039 75.6154 4.1845 75.6118 4.19004 75.607C4.2011 75.5975 4.21783 75.5829 4.24009 75.5635C4.28459 75.5247 4.35117 75.4664 4.43863 75.3891C4.61355 75.2344 4.872 75.0037 5.20445 74.7007C5.86938 74.0948 6.83023 73.2003 8.0109 72.0484C10.3725 69.7443 13.6121 66.4116 17.1216 62.3004C24.1459 54.0714 32.226 42.7516 36.5276 30.3363L37.4724 30.6637Z" fill="black"/>
<path d="M19.0584 71.6968L3.54607 76.787L11.0583 63.1967" stroke="black" stroke-linecap="round"/>
</svg>
