<svg width="77" height="82" viewBox="0 0 77 82" fill="none" xmlns="http://www.w3.org/2000/svg">
<path d="M1.07456 0.505592C0.801506 0.464409 0.546768 0.652382 0.505592 0.925438C0.464409 1.19849 0.652382 1.45323 0.925438 1.49441L1.07456 0.505592ZM1 1C0.925438 1.49441 0.925362 1.4944 0.9254 1.49441C0.925568 1.49443 0.92572 1.49445 0.926048 1.4945C0.926704 1.4946 0.927811 1.49477 0.929367 1.49501C0.93248 1.49549 0.937386 1.49625 0.944061 1.4973C0.957413 1.4994 0.977837 1.50265 1.00515 1.50712C1.05978 1.51605 1.14193 1.52985 1.25005 1.54899C1.46631 1.58727 1.78643 1.64693 2.19797 1.73186C3.02113 1.90175 4.20962 2.17264 5.66407 2.5756C8.57394 3.38178 12.5431 4.71513 16.7791 6.82265C25.2561 11.0402 34.7554 18.3331 39.0276 30.6637L39.9724 30.3363C35.5829 17.6669 25.8322 10.2098 17.2246 5.92735C12.9183 3.78487 8.88654 2.43072 5.93106 1.6119C4.45284 1.20236 3.24255 0.926376 2.40009 0.75251C1.97883 0.665565 1.64943 0.604134 1.42437 0.564293C1.31184 0.544373 1.22539 0.529846 1.16656 0.520226C1.13716 0.515419 1.11465 0.511833 1.09926 0.509415C1.09156 0.508209 1.08563 0.507286 1.08151 0.506653C1.07945 0.506332 1.07784 0.506088 1.07668 0.505913C1.0761 0.505821 1.07557 0.505745 1.07528 0.505699C1.07487 0.505638 1.07456 0.505592 1 1ZM39.0276 30.6637C43.3878 43.2484 51.5577 54.6786 58.6179 62.9496C62.1507 67.0884 65.412 70.4432 67.7908 72.7641C68.9803 73.9247 69.9495 74.827 70.622 75.4399C70.9583 75.7463 71.2205 75.9804 71.399 76.1382C71.4882 76.2172 71.5566 76.277 71.6028 76.3173C71.6259 76.3375 71.6435 76.3527 71.6554 76.3631C71.6614 76.3682 71.6659 76.3721 71.669 76.3748C71.6706 76.3761 71.6718 76.3772 71.6726 76.3779C71.673 76.3782 71.6734 76.3786 71.6736 76.3787C71.6738 76.379 71.674 76.3791 72 76C72.326 75.6209 72.326 75.6209 72.3259 75.6208C72.3257 75.6207 72.3255 75.6205 72.3252 75.6202C72.3246 75.6197 72.3236 75.6189 72.3223 75.6177C72.3196 75.6154 72.3155 75.6118 72.31 75.607C72.2989 75.5975 72.2822 75.5829 72.2599 75.5635C72.2154 75.5247 72.1488 75.4664 72.0614 75.3891C71.8864 75.2344 71.628 75.0037 71.2955 74.7007C70.6306 74.0948 69.6698 73.2003 68.4891 72.0484C66.1275 69.7443 62.8879 66.4116 59.3784 62.3004C52.3541 54.0714 44.274 42.7516 39.9724 30.3363L39.0276 30.6637Z" fill="black"/>
<path d="M57.4416 71.6968L72.9539 76.787L65.4417 63.1967" stroke="black" stroke-linecap="round"/>
</svg>
