<svg width="76" height="81" viewBox="0 0 76 81" fill="none" xmlns="http://www.w3.org/2000/svg">
<path d="M75.4254 80.9944C75.6985 81.0356 75.9532 80.8476 75.9944 80.5746C76.0356 80.3015 75.8476 80.0468 75.5746 80.0056L75.4254 80.9944ZM75.5 80.5C75.5746 80.0056 75.5746 80.0056 75.5746 80.0056C75.5744 80.0056 75.5743 80.0055 75.574 80.0055C75.5733 80.0054 75.5722 80.0052 75.5706 80.005C75.5675 80.0045 75.5626 80.0038 75.5559 80.0027C75.5426 80.0006 75.5222 79.9974 75.4949 79.9929C75.4402 79.9839 75.3581 79.9702 75.2499 79.951C75.0337 79.9127 74.7136 79.8531 74.302 79.7681C73.4789 79.5983 72.2904 79.3274 70.8359 78.9244C67.9261 78.1182 63.9569 76.7849 59.7209 74.6773C51.2439 70.4598 41.7446 63.1669 37.4724 50.8363L36.5276 51.1637C40.9171 63.8331 50.6678 71.2902 59.2754 75.5727C63.5817 77.7151 67.6135 79.0693 70.5689 79.8881C72.0472 80.2976 73.2575 80.5736 74.0999 80.7475C74.5212 80.8344 74.8506 80.8959 75.0756 80.9357C75.1882 80.9556 75.2746 80.9702 75.3334 80.9798C75.3628 80.9846 75.3853 80.9882 75.4007 80.9906C75.4084 80.9918 75.4144 80.9927 75.4185 80.9933C75.4205 80.9937 75.4222 80.9939 75.4233 80.9941C75.4239 80.9942 75.4244 80.9943 75.4247 80.9943C75.4251 80.9944 75.4254 80.9944 75.5 80.5ZM37.4724 50.8363C33.1122 38.2516 24.9423 26.8214 17.8821 18.5504C14.3493 14.4116 11.088 11.0568 8.70924 8.73587C7.51973 7.57531 6.55055 6.67297 5.87799 6.06011C5.54169 5.75367 5.27953 5.51959 5.10103 5.36175C5.01178 5.28284 4.94344 5.22298 4.89721 5.18268C4.87409 5.16253 4.8565 5.14726 4.84459 5.13694C4.83863 5.13179 4.83409 5.12787 4.83099 5.12519C4.82944 5.12385 4.82824 5.12282 4.82741 5.12211C4.827 5.12175 4.82665 5.12145 4.82644 5.12127C4.82618 5.12105 4.82601 5.1209 4.5 5.5C4.17399 5.8791 4.174 5.87911 4.1741 5.8792C4.17426 5.87933 4.17445 5.8795 4.17476 5.87977C4.17538 5.8803 4.17637 5.88115 4.17771 5.8823C4.18039 5.88462 4.1845 5.88817 4.19004 5.89296C4.2011 5.90254 4.21783 5.91706 4.24009 5.93646C4.28459 5.97526 4.35117 6.03357 4.43863 6.1109C4.61355 6.26557 4.872 6.49633 5.20445 6.79927C5.86938 7.40516 6.83023 8.29969 8.0109 9.45163C10.3725 11.7557 13.6121 15.0884 17.1216 19.1996C24.1459 27.4286 32.226 38.7484 36.5276 51.1637L37.4724 50.8363Z" fill="black"/>
<path d="M19.0584 9.80322L3.54607 4.71301L11.0583 18.3033" stroke="black" stroke-linecap="round"/>
</svg>
