<svg width="77" height="81" viewBox="0 0 77 81" fill="none" xmlns="http://www.w3.org/2000/svg">
<path d="M1.07456 80.9944C0.801506 81.0356 0.546768 80.8476 0.505592 80.5746C0.464409 80.3015 0.652382 80.0468 0.925438 80.0056L1.07456 80.9944ZM1 80.5C0.925438 80.0056 0.925362 80.0056 0.9254 80.0056C0.925568 80.0056 0.92572 80.0055 0.926048 80.0055C0.926704 80.0054 0.927811 80.0052 0.929367 80.005C0.93248 80.0045 0.937386 80.0038 0.944061 80.0027C0.957413 80.0006 0.977837 79.9974 1.00515 79.9929C1.05978 79.9839 1.14193 79.9702 1.25005 79.951C1.46631 79.9127 1.78643 79.8531 2.19797 79.7681C3.02113 79.5983 4.20962 79.3274 5.66407 78.9244C8.57394 78.1182 12.5431 76.7849 16.7791 74.6773C25.2561 70.4598 34.7554 63.1669 39.0276 50.8363L39.9724 51.1637C35.5829 63.8331 25.8322 71.2902 17.2246 75.5727C12.9183 77.7151 8.88654 79.0693 5.93106 79.8881C4.45284 80.2976 3.24255 80.5736 2.40009 80.7475C1.97883 80.8344 1.64943 80.8959 1.42437 80.9357C1.31184 80.9556 1.22539 80.9702 1.16656 80.9798C1.13716 80.9846 1.11465 80.9882 1.09926 80.9906C1.09156 80.9918 1.08563 80.9927 1.08151 80.9933C1.07945 80.9937 1.07784 80.9939 1.07668 80.9941C1.0761 80.9942 1.07557 80.9943 1.07528 80.9943C1.07487 80.9944 1.07456 80.9944 1 80.5ZM39.0276 50.8363C43.3878 38.2516 51.5577 26.8214 58.6179 18.5504C62.1507 14.4116 65.412 11.0568 67.7908 8.73587C68.9803 7.57531 69.9495 6.67297 70.622 6.06011C70.9583 5.75367 71.2205 5.51959 71.399 5.36175C71.4882 5.28284 71.5566 5.22298 71.6028 5.18268C71.6259 5.16253 71.6435 5.14726 71.6554 5.13694C71.6614 5.13179 71.6659 5.12787 71.669 5.12519C71.6706 5.12385 71.6718 5.12282 71.6726 5.12211C71.673 5.12175 71.6734 5.12145 71.6736 5.12127C71.6738 5.12105 71.674 5.1209 72 5.5C72.326 5.8791 72.326 5.87911 72.3259 5.8792C72.3257 5.87933 72.3255 5.8795 72.3252 5.87977C72.3246 5.8803 72.3236 5.88115 72.3223 5.8823C72.3196 5.88462 72.3155 5.88817 72.31 5.89296C72.2989 5.90254 72.2822 5.91706 72.2599 5.93646C72.2154 5.97526 72.1488 6.03357 72.0614 6.1109C71.8864 6.26557 71.628 6.49633 71.2955 6.79927C70.6306 7.40516 69.6698 8.29969 68.4891 9.45163C66.1275 11.7557 62.8879 15.0884 59.3784 19.1996C52.3541 27.4286 44.274 38.7484 39.9724 51.1637L39.0276 50.8363Z" fill="black"/>
<path d="M57.4416 9.80322L72.9539 4.71301L65.4417 18.3033" stroke="black" stroke-linecap="round"/>
</svg>
